<svg width="585" height="339" viewBox="0 0 585 339" fill="none" xmlns="http://www.w3.org/2000/svg">
<path d="M263.97 277.421V329.276C263.97 330.415 263.516 331.507 262.707 332.313C261.897 333.119 260.8 333.571 259.656 333.571H231.588C230.443 333.571 229.345 333.119 228.535 332.313C227.725 331.508 227.269 330.415 227.267 329.276V268.568C227.267 232.026 254.242 203.808 298.219 203.808C298.8 203.781 299.382 203.872 299.927 204.074C300.473 204.277 300.972 204.587 301.394 204.987C301.816 205.386 302.152 205.867 302.383 206.399C302.614 206.931 302.735 207.504 302.738 208.084L302.872 235.628C302.88 236.689 302.492 237.715 301.783 238.507C301.075 239.3 300.096 239.802 299.037 239.917C270.995 239.93 263.97 260.569 263.97 277.421Z" fill="#FFFF00"/>
<path d="M582.752 316.013C583.184 316.441 583.519 316.955 583.737 317.521C583.954 318.087 584.049 318.693 584.015 319.298C583.98 319.904 583.818 320.495 583.537 321.033C583.257 321.571 582.865 322.045 582.388 322.421C570.748 331.503 555.906 336.741 539.351 336.741C520.021 336.741 503.632 330.376 490.663 317.737C477.693 304.825 471.333 288.991 471.333 270.229C471.333 251.233 477.693 235.392 490.663 222.728C503.632 210.063 520.021 203.725 539.351 203.725C555.906 203.725 570.748 208.962 582.388 218.044C582.865 218.421 583.257 218.894 583.537 219.432C583.818 219.97 583.98 220.562 584.015 221.167C584.049 221.772 583.954 222.378 583.737 222.944C583.519 223.511 583.184 224.025 582.752 224.453L562.298 244.818C561.58 245.543 560.627 245.991 559.608 246.081C558.589 246.171 557.571 245.897 556.737 245.308C551.692 241.659 545.606 239.714 539.37 239.758C530.809 239.758 523.714 242.684 518.084 248.534C512.46 254.135 509.519 261.441 509.519 269.969C509.519 287.508 522.489 300.663 539.37 300.663C545.604 300.706 551.69 298.763 556.737 295.119C557.571 294.531 558.589 294.256 559.608 294.346C560.627 294.436 561.58 294.884 562.298 295.609L582.752 316.013Z" fill="#FFFF00"/>
<path d="M419.648 214.015C402.894 203.12 384.236 203.534 378.783 203.725C374.341 203.877 358.195 204.698 344.836 213.64C340.972 216.237 337.443 219.295 334.327 222.747C322.821 235.412 317.203 251.252 317.203 270.249C317.203 289.01 322.828 304.844 334.327 317.756C345.833 330.421 360.266 336.76 377.39 336.76C388.972 336.76 399.423 334.85 408.749 328.951C409.076 328.752 409.443 328.629 409.824 328.591C410.205 328.552 410.59 328.6 410.95 328.729C411.311 328.859 411.637 329.067 411.905 329.339C412.174 329.611 412.377 329.939 412.501 330.3C412.754 331.225 413.3 332.044 414.058 332.636C414.815 333.228 415.745 333.56 416.707 333.584H444.755C445.323 333.584 445.884 333.473 446.408 333.256C446.932 333.04 447.408 332.723 447.809 332.323C448.209 331.924 448.527 331.45 448.743 330.928C448.96 330.406 449.071 329.846 449.07 329.282V279.826C449.07 279.776 449.07 279.731 449.07 279.686C449.076 270.229 449.645 233.566 419.648 214.015ZM412.668 276.065C412.668 276.201 412.642 276.335 412.591 276.466C411.704 280.773 409.89 284.838 407.275 288.381C404.66 291.924 401.305 294.861 397.442 296.99C393.288 299.415 388.559 300.69 383.744 300.682C383.149 300.682 382.561 300.682 381.973 300.624C365.891 299.988 353.03 286.623 353.03 270.204C353.03 253.377 366.511 239.752 383.13 239.752C383.731 239.752 384.332 239.752 384.92 239.809C389.103 239.937 393.193 241.07 396.841 243.112C401.802 245.707 405.953 249.606 408.842 254.386C411.732 259.166 413.25 264.644 413.23 270.223C413.234 272.184 413.045 274.141 412.668 276.065Z" fill="#FFFF00"/>
<path d="M65.2235 167.38C65.2028 184.119 58.9258 200.252 47.6148 212.637C36.3037 225.022 20.7682 232.773 4.03281 234.381C3.5237 234.426 3.01074 234.365 2.52659 234.202C2.04244 234.038 1.59771 233.777 1.22071 233.433C0.843705 233.089 0.542696 232.671 0.33684 232.206C0.130984 231.74 0.0247921 231.237 0.0250248 230.728V214.665C0.0261525 213.772 0.354903 212.911 0.949404 212.243C1.54391 211.575 2.36316 211.146 3.25299 211.037C13.9144 209.673 23.7113 204.488 30.8112 196.452C37.9112 188.417 41.8279 178.082 41.8288 167.38C41.8262 156.679 37.9086 146.346 30.8086 138.313C23.7087 130.28 13.9127 125.098 3.25299 123.735C2.36951 123.618 1.55869 123.185 0.970952 122.518C0.383217 121.851 0.0584768 120.995 0.0569848 120.107V104.044C0.0556915 103.535 0.161223 103.032 0.366815 102.566C0.572407 102.1 0.873521 101.682 1.25085 101.338C1.62819 100.995 2.07341 100.734 2.55799 100.572C3.04256 100.41 3.55579 100.351 4.06477 100.398C20.7922 102.009 36.319 109.76 47.6235 122.141C58.928 134.522 65.2017 150.647 65.2235 167.38Z" fill="#FFFF00"/>
<path d="M97.5671 167.38C97.5671 220.151 56.0957 263.477 3.8986 266.691C3.39985 266.719 2.90067 266.645 2.43164 266.474C1.96261 266.303 1.53362 266.038 1.17096 265.696C0.80829 265.354 0.51959 264.942 0.322548 264.485C0.125505 264.028 0.0242702 263.535 0.0250471 263.038V244.461C0.0218121 243.545 0.365299 242.661 0.987142 241.985C1.60899 241.309 2.46359 240.891 3.38085 240.815C21.9432 239.354 39.272 230.986 51.9168 217.378C64.5616 203.769 71.5947 185.918 71.6155 167.38C71.5915 148.843 64.557 130.995 51.9125 117.389C39.268 103.783 21.941 95.4176 3.38085 93.9571C2.46414 93.8819 1.60959 93.4654 0.987615 92.7907C0.365639 92.116 0.0219371 91.2327 0.0250471 90.3169V71.7338C0.0268749 71.238 0.130029 70.7478 0.328228 70.2931C0.526427 69.8383 0.815523 69.4284 1.17791 69.0885C1.5403 68.7485 1.9684 68.4855 2.43614 68.3156C2.90387 68.1456 3.40146 68.0722 3.8986 68.0999C56.0957 71.2819 97.5671 114.615 97.5671 167.38Z" fill="#FFFF00"/>
<path d="M132.097 167.38C132.097 239.122 75.1183 297.843 3.86024 301.114C3.36377 301.136 2.86806 301.057 2.4031 300.882C1.93814 300.708 1.51359 300.441 1.15509 300.098C0.796603 299.756 0.511627 299.344 0.317393 298.889C0.123159 298.433 0.0237034 297.943 0.0250377 297.449V276.74C0.0271183 275.799 0.391606 274.896 1.04334 274.215C1.69508 273.534 2.58438 273.128 3.52786 273.081C59.426 270.032 103.959 223.791 103.959 167.38C103.959 110.968 59.426 64.746 3.52786 61.6912C2.58494 61.6455 1.69568 61.241 1.04379 60.5612C0.391899 59.8813 0.0271996 58.9782 0.0250377 58.0383V37.3168C0.0245682 36.8226 0.124662 36.3333 0.31928 35.8787C0.513899 35.424 0.799008 35.0133 1.15741 34.6713C1.51581 34.3294 1.94007 34.0632 2.4046 33.889C2.86913 33.7147 3.3643 33.636 3.86024 33.6575C75.1183 36.9159 132.097 95.65 132.097 167.38Z" fill="#FFFF00"/>
<path d="M0.0252623 178.027C0.0208034 178.308 0.0790658 178.588 0.195867 178.844C0.312668 179.101 0.48511 179.329 0.700815 179.512C0.916519 179.694 1.17013 179.827 1.44345 179.9C1.71678 179.973 2.00302 179.986 2.28164 179.936C5.23851 179.408 7.91422 177.86 9.83931 175.564C11.7644 173.268 12.8159 170.37 12.8093 167.38C12.8069 164.395 11.7513 161.507 9.82699 159.218C7.90269 156.93 5.23202 155.388 2.28164 154.861C2.00569 154.812 1.72224 154.824 1.45125 154.895C1.18026 154.967 0.928324 155.097 0.713196 155.276C0.498067 155.455 0.324977 155.678 0.206119 155.931C0.0872603 156.184 0.0255251 156.46 0.0252623 156.739V178.027Z" fill="#FFFF00"/>
<path d="M165.86 167.379C165.86 257.812 93.8666 331.508 3.83521 334.754C3.33895 334.775 2.84364 334.695 2.37909 334.52C1.91453 334.345 1.49034 334.078 1.13204 333.736C0.773733 333.393 0.488732 332.982 0.294185 332.527C0.0996391 332.072 -0.000429957 331.583 1.38855e-06 331.088V311.15C0.00247059 310.205 0.370709 309.299 1.028 308.618C1.6853 307.938 2.58096 307.536 3.52839 307.497C38.8252 306.118 72.2898 291.489 97.1969 266.55C110.324 253.56 120.732 238.106 127.819 221.083C134.906 204.06 138.531 185.806 138.483 167.379C138.534 148.956 134.913 130.706 127.83 113.687C120.748 96.6667 110.344 81.215 97.2224 68.2262C72.3178 43.2828 38.8522 28.6513 3.55396 27.2733C2.60599 27.2355 1.70942 26.8342 1.0518 26.1534C0.394178 25.4725 0.0264601 24.5649 0.0255694 23.6203V3.6689C0.0251381 3.17438 0.125207 2.68489 0.319753 2.22989C0.5143 1.77489 0.799301 1.36378 1.1576 1.02131C1.51591 0.678847 1.9401 0.4121 2.40465 0.237128C2.86921 0.0621568 3.36452 -0.0174213 3.86077 0.00318365C13.4499 0.345656 22.9919 1.50605 32.3819 3.47161C108.619 19.4136 165.86 86.7456 165.86 167.379Z" fill="#FFFF00"/>
<path d="M136.559 328.556C136.275 328.839 136.054 329.179 135.911 329.552C135.768 329.926 135.707 330.326 135.73 330.725C135.754 331.124 135.862 331.514 136.048 331.868C136.234 332.223 136.493 332.534 136.808 332.782C141.743 336.61 147.912 338.511 154.156 338.126C160.4 337.742 166.288 335.099 170.711 330.695C175.135 326.291 177.789 320.429 178.175 314.212C178.561 307.996 176.652 301.853 172.808 296.94C172.559 296.626 172.246 296.368 171.89 296.183C171.534 295.998 171.142 295.89 170.741 295.867C170.341 295.843 169.939 295.905 169.564 296.047C169.188 296.189 168.847 296.409 168.563 296.691L136.559 328.556Z" fill="#FFFF00"/>
<g opacity="0.47" filter="url(#filter0_d_3174_208)">
<path d="M532.652 92.9644C532.652 93.0853 532.607 93.2062 532.582 93.3271V92.9771L532.652 92.9644Z" fill="#FFFF00"/>
</g>
<defs>
<filter id="filter0_d_3174_208" x="528.582" y="92.9644" width="8.07031" height="8.36273" filterUnits="userSpaceOnUse" color-interpolation-filters="sRGB">
<feFlood flood-opacity="0" result="BackgroundImageFix"/>
<feColorMatrix in="SourceAlpha" type="matrix" values="0 0 0 0 0 0 0 0 0 0 0 0 0 0 0 0 0 0 127 0" result="hardAlpha"/>
<feOffset dy="4"/>
<feGaussianBlur stdDeviation="2"/>
<feComposite in2="hardAlpha" operator="out"/>
<feColorMatrix type="matrix" values="0 0 0 0 0 0 0 0 0 0 0 0 0 0 0 0 0 0 0.25 0"/>
<feBlend mode="normal" in2="BackgroundImageFix" result="effect1_dropShadow_3174_208"/>
<feBlend mode="normal" in="SourceGraphic" in2="effect1_dropShadow_3174_208" result="shape"/>
</filter>
</defs>
</svg>
